<svg height="512" viewBox="0 0 60 60" width="512" xmlns="http://www.w3.org/2000/svg"><g id="002---Space-Ship" fill="none"><g id="Icons" transform="translate(1 1)"><path id="Shape" d="m18.66 38.17c-6.6288281.9352321-12.86380885 3.7063346-18 8-.44227993.3751968-.66126611.9509826-.58009603 1.5252609s.45115621 1.0668172.98009603 1.3047391c12.94 5.33 42.94 5.33 55.88 0 .5532404-.2216155.9488528-.7182457 1.0411707-1.307029.0923179-.5887832-.1323085-1.1826635-.5911707-1.562971-5.1361911-4.2936654-11.3711719-7.0647679-18-8z" fill="#9e9e9e"/><path id="Shape" d="m56.94 49c-7.94 3.28-21.25 4.11-29.94 4 13.83-.21 22.51-2.57 25.94-4 .5532404-.2216155.9488528-.7182457 1.0411707-1.307029.0923179-.5887832-.1323085-1.1826635-.5911707-1.562971-5.1361911-4.2936654-11.3711719-7.0647679-18-8h4c6.6288281.9352321 12.8638089 3.7063346 18 8 .4588622.3803075.6834886.9741878.5911707 1.562971-.0923179.5887833-.4879303 1.0854135-1.0411707 1.307029z" fill="#707070"/><path id="Shape" d="m12.7 51.87-3.58 5.13c-.17074623.2350409-.15204208.5578851.0447051.7716351.19674717.21375.51693862.2590888.7652949.1083649l9.26-5.3z" fill="#607d8b"/><path id="Shape" d="m45.3 51.87 3.58 5.13c.1707462.2350409.1520421.5578851-.0447051.7716351s-.5169386.2590888-.7652949.1083649l-9.26-5.3z" fill="#607d8b"/><path id="Shape" d="m38.29 39.75c.4381556-.4059037.77985-.9047775 1-1.46 2.9318683-7.7721815 4.5244469-15.9852888 4.71-24.29 0-13-10-14-15-14s-15 1-15 14c.1855531 8.3047112 1.7781317 16.5178185 4.71 24.29.22015.5552225.5618444 1.0540963 1 1.46 4.72 4.35 13.87 4.34 18.58 0z" fill="#00695c"/><path id="Shape" d="m40.24 35.61c-.82 2.49-1.09 3.33-2 4.14-4.72 4.34-13.85 4.35-18.58 0-.91-.85-1.15-1.72-1.95-4.11 5.96 3.12 16.49 3.19 22.53-.03z" fill="#607d8b"/><path id="Shape" d="m40.24 35.61c-.82 2.49-1.09 3.33-2 4.14-2.34 2.25-6.24 3.65-11.12 3.15 2.7440198-.2276667 5.3420021-1.3320721 7.41-3.15.689121-.7089552 1.1759613-1.5894111 1.41-2.55 1.4916367-.3565429 2.9352371-.8903393 4.3-1.59z" fill="#37474f"/><path id="Shape" d="m39.85 3.18c-16.65 7.27-21.94 19.2-23.49 27.71-1.4862449-5.5098986-2.279038-11.1837445-2.36-16.89 0-13 10-14 15-14 2.91 0 7.51.34 10.85 3.18z" fill="#009688"/><g fill="#fff"><path id="Shape" d="m24.58 4.22c-2.7401291 1.16854229-4.7245325 3.61722119-5.3 6.54-.73 3.16 2.56 5.24 5.72 5.24 2.45 0 3.4-4.72 3.77-8.37.1573782-1.09524077-.271435-2.19274549-1.1296333-2.89118371-.8581983-.69843823-2.0199255-.89538293-3.0603667-.51881629z"/><circle id="Oval" cx="21" cy="22" r="2"/></g></g><g id="Outline" fill="#000"><circle id="Oval" cx="30" cy="49" r="1"/><circle id="Oval" cx="36" cy="49" r="1"/><circle id="Oval" cx="42" cy="48" r="1"/><circle id="Oval" cx="48" cy="46" r="1"/><circle id="Oval" cx="12" cy="46" r="1"/><circle id="Oval" cx="24" cy="49" r="1"/><circle id="Oval" cx="18" cy="48" r="1"/><path id="Shape" d="m1.68 50.92c3.32968735 1.2806757 6.79068672 2.1895234 10.32 2.71l-2.7 3.83c-.34823333.4920978-.39237403 1.1375075-.1143807 1.6724341.27799332.5349265.8315358.8697292 1.4343807.8675659.57 0 0 .24 9.78-5.35 6.3908068.4851238 12.8091932.4851238 19.2 0 9.74 5.56 9.19 5.35 9.79 5.35.5996766-.0049525 1.147558-.3407799 1.4240979-.8729097.27654-.5321299.2364912-1.1734958-.1040979-1.6670903l-2.66-3.83c3.5123375-.5240678 6.9563783-1.4328654 10.27-2.71.8790144-.3560003 1.5056215-1.148561 1.6492111-2.0859961.1435897-.9374351-.217057-1.8812163-.9492111-2.4840039-4.9782425-4.1293132-10.9485576-6.8869646-17.32-8 2.6908386-7.4984481 4.1431625-15.384905 4.3-23.35 0-6.84-2.78-15-16-15s-16 8.16-16 15c.1523701 7.9688028 1.6048101 15.8592676 4.3 23.36-6.3634138 1.1134364-12.32635809 3.8674205-17.3 7.99-.73327094.5997871-1.09699651 1.5410621-.95757239 2.4780742.13942412.9370122.76144181 1.731612 1.63757239 2.0919258zm10.23 6.27 2.24-3.19c.91.12 1.84.24 2.79.34zm36.18 0-5-2.87c.95-.1 1.88-.22 2.79-.35zm-9.48-17.19c-4.34 4-12.87 4-17.22 0-.4418679-.4251326-.7628208-.9600542-.93-1.55 6.1956519 2.044753 12.8843481 2.044753 19.08 0-.1625941.5919183-.484234 1.1279849-.93 1.55zm-8.61-38c9.42 0 14 4.25 14 13-.1392224 7.106707-1.3460416 14.1521042-3.58 20.9-5.67 2.8-15.16 2.81-20.84 0-2.2286777-6.7492131-3.4353595-13.7938082-3.58-20.9 0-8.75 4.58-13 14-13zm-27.75 45.9c4.83072155-4.012181 10.6498658-6.654107 16.85-7.65.2301524.4568048.5342539.8724102.9 1.23 5.12 4.73 14.81 4.73 19.94 0 .3764346-.3552584.6907744-.7709981.93-1.23 6.2106913.9907544 12.0408175 3.6329621 16.88 7.65.1855061.1586007.2750122.4023718.2362136.643331-.0387985.2409593-.2002994.4443139-.4262136.536669-13.19 5.42-43 5-55.12 0-.22591421-.0923551-.38741512-.2957097-.42621364-.536669-.03879853-.2409592.05070757-.4847303.23621364-.643331z"/></g></g></svg>