<svg height="512" viewBox="0 0 60 60" width="512" xmlns="http://www.w3.org/2000/svg"><g id="010---Alien-Space-Ship" fill="none"><g id="Icons" transform="translate(1 1)"><path id="Shape" d="m56 34v7h-10v-7c0-2.7614237 2.2385763-5 5-5s5 2.2385763 5 5z" fill="#707070"/><path id="Shape" d="m53 34 .0000107 7h-7.0000214l.0000107-7c-.0045063-2.1873902 1.4133569-4.1237862 3.5-4.78 2.0866431.6562138 3.5045063 2.5926098 3.5 4.78z" fill="#9e9e9e"/><path id="Shape" d="m12 41h-10v-7c0-2.7614237 2.23857625-5 5-5s5 2.2385763 5 5z" fill="#9e9e9e"/><path id="Rectangle-path" d="m2 37h10v4.25h-10z" fill="#607d8b"/><path id="Rectangle-path" d="m45.98 36.88h10v4.25h-10z" fill="#37474f"/><path id="Rectangle-path" d="m46 36.88h6.98v4.25h-6.98z" fill="#607d8b"/><path id="Shape" d="m56 41h-10c0 3.62-1.36 7-5 7-5 0-6-2-6-5 0-7 5-15 5-23h-6c0 6.63-2.24 12-5 12s-5-5.37-5-12h-6c0 8 5 16 5 23 0 3-1 5-6 5-3.63 0-5-3.38-5-7h-10c0 5-2 5-2 9 0 4.26 4.8 6.29 10.37 7.23 5.86 1 11.1.77 26.63.77 7.23 0 21-.81 21-8 0-4-2-4-2-9z" fill="#3f51b5"/><path id="Shape" d="m58 50c-6.91 0-7.61 1.91-10.69 3.09l-.24-3.09c-.0462562-.6116486-.3706305-1.1682453-.88-1.51-.7676413-.4389527-1.4998633-.9371312-2.19-1.49 1.57-1.39 2-3.9 2-6h10c0 5 2 5 2 9z" fill="#547580"/><path id="Shape" d="m58 50c-6.91 0-7.61 1.91-10.69 3.09-.14-1.86-.1-1.15-.24-3.12-.0462562-.6116486-.3706305-1.1682453-.88-1.51-.7666341-.4293387-1.4988281-.917468-2.19-1.46 1.57-1.39 2-3.9 2-6h10c0 5 2 5 2 9z" fill="#283593"/><path id="Shape" d="m55 50c-4.35 0-6.24.76-7.8 1.61l-.13-1.61c-.0462562-.6116486-.3706305-1.1682453-.88-1.51-.7676413-.4389527-1.4998633-.9371312-2.19-1.49 1.57-1.39 2-3.9 2-6h7c0 5 2 5 2 9z" fill="#3f51b5"/><path id="Shape" d="m40 20c0 6.33-3.13 12.65-4.43 18.48-2.66 2.66-6.57 4.52-6.57 9.52v-16c2.76 0 5-5.37 5-12z" fill="#283593"/><path id="Shape" d="m37 20c0 7-3.13 14-4.43 20.46-2 2-2.58 2.43-3.57 3.5v-11.96c2.76 0 5-5.37 5-12z" fill="#3f51b5"/><path id="Shape" d="m10.37 57.23c-5.57-.94-10.37-2.97-10.37-7.23 6.7 0 7.44 1.75 10.64 3.07.1.05.08-.35-.27 4.16z" fill="#02a9f4"/><g fill="#3f51b5"><path id="Shape" d="m29 48c-2.209139 0-4 1.790861-4 4v2c-8.3 0-11.39.22-14.31-.91l.24-3.09c.0462562-.6116486.3706305-1.1682453.88-1.51.7676413-.4389527 1.4998633-.9371312 2.19-1.49.8356766.7040817 1.9090098 1.0618594 3 1 5 0 6-2 6-5-.0235179-1.5191266-.2112765-3.0312537-.56-4.51 2.9 2.75 6.56 4.67 6.56 9.51z"/><path id="Shape" d="m25 54v4c-4.8898099.1727244-9.7853369-.0849349-14.63-.77l.32-4.14c3.11 1.2 6.74.91 14.31.91z"/><path id="Shape" d="m47.31 53.09c-3.11 1.2-6.74.91-14.31.91 0-2 .23-3.41-1.17-4.83-.7507884-.7499543-1.7688148-1.1708345-2.83-1.17 0-4.84 3.66-6.76 6.56-9.51-.3487235 1.4787463-.5364821 2.9908734-.56 4.51 0 3 1 5 6 5 1.0909902.0618594 2.1643234-.2959183 3-1 .700544.5638013 1.4464069 1.0688475 2.23 1.51.4889723.3458414.79722.892614.84 1.49z"/><path id="Shape" d="m47.63 57.23c-4.8448613.683016-9.7402081.9406658-14.63.77v-4c8.3 0 11.39.22 14.31-.91z"/></g><path id="Shape" d="m58 50c0 4.26-4.8 6.29-10.37 7.23-.07-.88 0-.11-.32-4.14 3.08-1.18 3.78-3.09 10.69-3.09z" fill="#0377bc"/><path id="Shape" d="m55 50.15c-.09 3.39-3.27 5.34-7.42 6.45l-.27-3.51c2.56-.98 3.48-2.47 7.69-2.94z" fill="#02a9f4"/><path id="Shape" d="m7 25c-1.1045695 0-2 .8954305-2 2v2.42c1.27525232-.5565657 2.72474768-.5565657 4 0v-2.42c0-1.1045695-.8954305-2-2-2z" fill="#9e9e9e"/><path id="Shape" d="m53 27v2.42c-1.2752523-.5565657-2.7247477-.5565657-4 0v-2.42c0-1.1045695.8954305-2 2-2s2 .8954305 2 2z" fill="#9e9e9e"/><path id="Rectangle-path" d="m25 54h8v4h-8z" fill="#0377bc"/><path id="Shape" d="m33 52v2h-8v-2c0-2.209139 1.790861-4 4-4s4 1.790861 4 4z" fill="#02a9f4"/><path id="Shape" d="m34 20c0 6.63-2.24 12-5 12s-5-5.37-5-12c3.2 1.3333333 6.8 1.3333333 10 0z" fill="#607d8b"/><path id="Shape" d="m29.82.44c-.1870412-.26796574-.4932125-.42763648-.82-.42763648s-.6329588.15967074-.82.42763648c-4.81 6.71-10.18 6.32-10.18 19.56h6c3.2 1.3333333 6.8 1.3333333 10 0h6c0-13.24-5.37-12.85-10.18-19.56z" fill="#02a9f4"/><path id="Shape" d="m40 20h-3c0-12.62-4.88-12.86-9.5-18.66.67-.84.83-1.34 1.5-1.34.3253865-.00174841.6312778.15492761.82.42 4.81 6.73 10.18 6.34 10.18 19.58z" fill="#0377bc"/></g><g id="Outline" fill="#000"><path id="Shape" d="m11.22 59.21h.07.07c5.7.95 9.86.76 26.64.76 8 0 22-1 22-9 0-4.19-2-4.35-2-9v-6.97c-.0021964-2.1413952-1.1454958-4.119303-3-5.19v-1.81c-.0035644-1.2682549-.8042713-2.3972517-2-2.82v-1.18c0-.5522847-.4477153-1-1-1s-1 .4477153-1 1v1.18c-1.1957287.4227483-1.9964356 1.5517451-2 2.82v1.81c-1.8545042 1.070697-2.9978036 3.0486048-3 5.19v7c0 1.8-.39 6-4 6-4.63 0-5-1.73-5-4 0-6.71 5-14.87 5-23 0-13.71-5.68-13.61-10.37-20.14-.3751677-.52766577-.9825573-.84107809-1.63-.84107809s-1.2548323.31341232-1.63.84107809c-4.69 6.53-10.37 6.43-10.37 20.14 0 8.19 5 16.22 5 23 0 2.27-.37 4-5 4-3.61 0-4-4.2-4-6v-7c-.0021964-2.1413952-1.1454958-4.119303-3-5.19v-1.81c-.0035644-1.2682549-.8042713-2.3972517-2-2.82v-1.18c0-.5522847-.44771525-1-1-1s-1 .4477153-1 1v1.18c-1.1957287.4227483-1.99643563 1.5517451-2 2.82v1.81c-1.85450424 1.070697-2.99780355 3.0486048-3 5.19v7c0 4.71-2 4.74-2 9s3.85 7 11.22 8.21zm-9.09-7.21c5.1.18 6 1.56 8.5 2.71l-.18 2.33c-4.16-.81-7.62-2.32-8.32-5.04zm9.87-11h-8v-2h8zm-8 2h8c.0669253 1.6934458.5885096 3.3376452 1.51 4.76l-1.3.87c-.7627382.51157-1.2491292 1.3443304-1.32 2.26l-.13 1.69c-2.28-1.24-3.65-2.41-8.71-2.58.28-2.47 1.71-3.21 1.95-7zm8.46 14.4.16-2c2.86.75 5.74.57 12.41.57v2c-4.208378.1298582-8.4205367-.0606919-12.6-.57zm21.54-34.99c-.33 5.59-2.26 9.59-4 9.59s-3.67-4-4-9.59c2.6064512.8014349 5.3935488.8014349 8 0zm-8-2.11c.16-5.94 2.17-10.3 4-10.3s3.83 4.36 4 10.3c-2.5864747.9248682-5.4135253.9248682-8 0zm4 29.7c1.6568542 0 3 1.3431458 3 3v1h-6v-1c0-1.6568542 1.3431458-3 3-3zm-3 8v-2h6v2zm8 0v-2c7 0 9.68.15 12.41-.57l.16 2c-4.1698223.5044106-8.3716388.6949465-12.57.57zm14.55-.94-.18-2.33c2.51-1.16 3.4-2.53 8.5-2.71-.7 2.7-4.16 4.21-8.32 5.04zm-.48-6.17c-.0708708-.9156696-.5572618-1.74843-1.32-2.26l-1.3-.87c.9356205-1.4182641 1.4711169-3.0627563 1.55-4.76h8c.21 3.79 1.64 4.53 1.92 7-4.92.15-6.32 1.26-8.75 2.56zm6.93-9.89h-8v-2h8zm-5-11.92v-1.08c0-.5522847.4477153-1 1-1s1 .4477153 1 1v1.08c-.662521-.105143-1.337479-.105143-2 0zm1 1.92c2.209139 0 4 1.790861 4 4v2h-8v-2c0-2.209139 1.790861-4 4-4zm-10 19c1.0592818.0309814 2.1037544-.2545078 3-.82l1.67 1.11c.2560074.1719364.4183659.4523738.44.76l.18 2.34c-2.61.79-5.34.61-12.26.61v-1c-.0019572-2.3475522-1.636831-4.3776245-3.93-4.88.31-2.71 2-4.31 4-6-.56 5.38 1.1 7.88 6.9 7.88zm-6.34-11c-1.6544263 1.3269592-3.2117396 2.7706488-4.66 4.32v-9.5c2.76-.93 4.78-5.64 5-11.82h4c-.34 5.73-3 11.44-4.34 17zm-5.66-37c4.8 6.7 9.72 6.27 10 18h-4c-.22-6.91-2.72-12-6-12s-5.76 5.09-6 12h-4c.28-11.69 5.16-11.3 10-18zm-10 20h4c.2 6.18 2.22 10.89 5 11.82v9.5c-1.4482604-1.5493512-3.0055737-2.9930408-4.66-4.32-1.34-5.57-4-11.27-4.34-17zm4.84 20.09c2 1.72 3.74 3.32 4.05 6-2.2882722.5209375-3.9063053 2.5632363-3.89 4.91v1c-6.74 0-9.65.18-12.26-.61l.18-2.34c.0216341-.3076262.1839926-.5880636.44-.76l1.64-1.11c.8962456.5654922 1.9407182.8509814 3 .82 5.78 0 7.47-2.48 6.88-7.91zm-17.84-13.01v-1.08c0-.5522847.44771525-1 1-1s1 .4477153 1 1v1.08c-.66253415-.1049764-1.33746585-.1049764-2 0zm1 1.92c2.209139 0 4 1.790861 4 4v2h-8v-2c0-2.209139 1.790861-4 4-4z"/><path id="Shape" d="m9.29 21.71c.1877666.1893127.44336246.2957983.71.2957983.2666375 0 .5222334-.1064856.71-.2957983l1-1c.3921222-.3921222.3921222-1.0278778 0-1.42s-1.0278778-.3921222-1.42 0l-1 1c-.18931265.1877666-.29579832.4433625-.29579832.71s.10648567.5222334.29579832.71z"/><path id="Shape" d="m5.29 21.71c.39212217.3921222 1.02787783.3921222 1.42 0s.39212217-1.0278778 0-1.42l-1-1c-.39212218-.3921222-1.02787781-.3921221-1.41999998 0-.39212216.3921222-.39212217 1.0278778-.00000002 1.42z"/><path id="Shape" d="m8 5c.55228475 0 1-.44771525 1-1v-3c0-.55228475-.44771525-1-1-1s-1 .44771525-1 1v3c0 .55228475.44771525 1 1 1z"/><path id="Shape" d="m8 18c.55228475 0 1-.4477153 1-1v-9c0-.55228475-.44771525-1-1-1s-1 .44771525-1 1v9c0 .5522847.44771525 1 1 1z"/><path id="Shape" d="m49.29 21.71c.2536586.2536586.623374.3527235.969878.259878.3465041-.0928454.6171546-.3634959.71-.71.0928455-.346504-.0062194-.7162194-.259878-.969878l-1-1c-.3921222-.3921222-1.0278778-.3921222-1.42 0s-.3921222 1.0278778 0 1.42z"/><path id="Shape" d="m53.29 21.71c.1877666.1893127.4433625.2957983.71.2957983s.5222334-.1064856.71-.2957983l1-1c.3921221-.3921222.3921221-1.0278778 0-1.42-.3921222-.3921221-1.0278778-.3921221-1.42 0l-1 1c-.1893127.1877666-.2957983.4433625-.2957983.71s.1064856.5222334.2957983.71z"/><path id="Shape" d="m52 10c.5522847 0 1-.44771525 1-1v-8c0-.55228475-.4477153-1-1-1s-1 .44771525-1 1v8c0 .55228475.4477153 1 1 1z"/><path id="Shape" d="m52 18c.5522847 0 1-.4477153 1-1v-4c0-.5522847-.4477153-1-1-1s-1 .4477153-1 1v4c0 .5522847.4477153 1 1 1z"/></g></g></svg>