<svg xmlns="http://www.w3.org/2000/svg" xmlns:xlink="http://www.w3.org/1999/xlink" version="1.1" style="" xml:space="preserve" width="512" height="512"><rect id="backgroundrect" width="100%" height="100%" x="0" y="0" fill="none" stroke="none"/>


















<g class="currentLayer" style=""><title>Layer 1</title><path style="fill:#FFB446;" d="M97.103,353.103C97.103,440.86,168.244,512,256,512l0,0c87.756,0,158.897-71.14,158.897-158.897  c0-88.276-44.138-158.897-14.524-220.69c0,0-47.27,8.828-73.752,79.448c0,0-88.276-88.276-51.394-211.862  c0,0-89.847,35.31-80.451,150.069c8.058,98.406-9.396,114.759-9.396,114.759c0-79.448-62.115-114.759-62.115-114.759  C141.241,247.172,97.103,273.655,97.103,353.103z" id="svg_1" class="" transform="rotate(179.49365234375 256,255.99948120117188) "/><path style="fill:#FFDC64;" d="M361.07033165311816,223.35431459808348 c0,66.093 -51.033,122.516 -117.114,121.241 c-62.188,-1.198 -108.457,-48.514 -103.512,-110.321 c2.207,-27.586 23.172,-72.276 57.379,-117.517 l22.805,13.793 C219.89133165311813,74.64331459808349 246.37433165311813,0.34431459808348563 246.37433165311813,0.34431459808348563 C263.77033165311815,78.6273145980835 361.07033165311816,98.9183145980835 361.07033165311816,223.35431459808348 z" id="svg_2" class="" transform="rotate(179.33795166015625 250.5762481689453,172.48039245605466) "/><path style="fill:#FFFFFF;" d="M209.18820239257812,53.62982945251463 c-8.828,52.966 -26.483,72.249 -26.483,105.931 C182.70520239257812,194.87182945251465 214.32420239257812,230.18182945251465 253.32620239257812,230.18182945251465 l0,0 c39.284,0 70.729,-32.097 70.62,-71.381 c-0.2950000000000001,-105.508 -61.792,-158.136 -61.792,-158.136 c8.828,52.966 -17.655,79.448 -17.655,79.448 C233.46720239257812,63.56682945251464 209.18820239257812,53.62982945251463 209.18820239257812,53.62982945251463 z" id="svg_3" class="" transform="rotate(-179.75653076171875 253.32583618164062,115.42333221435545) "/><g id="svg_4">
</g><g id="svg_5">
</g><g id="svg_6">
</g><g id="svg_7">
</g><g id="svg_8">
</g><g id="svg_9">
</g><g id="svg_10">
</g><g id="svg_11">
</g><g id="svg_12">
</g><g id="svg_13">
</g><g id="svg_14">
</g><g id="svg_15">
</g><g id="svg_16">
</g><g id="svg_17">
</g><g id="svg_18">
</g></g></svg>